<?xml version="1.0" encoding="iso-8859-1"?>
<!-- Generator: Adobe Illustrator 19.0.0, SVG Export Plug-In . SVG Version: 6.00 Build 0)  -->
<svg version="1.1" id="Layer_1" xmlns="http://www.w3.org/2000/svg" xmlns:xlink="http://www.w3.org/1999/xlink" x="0px" y="0px"
	 viewBox="0 0 511.999 511.999" style="enable-background:new 0 0 511.999 511.999;" xml:space="preserve">
<polygon style="fill:#F4661E;" points="474.261,401.508 474.261,444.621 436.537,444.621 301.808,444.621 301.808,401.508 
	382.537,401.508 "/>
<path style="fill:#FEDAAB;" d="M188.634,318.73c15.629,8.192,33.844,12.718,53.892,12.718s38.263-4.635,53.892-12.718v34.276
	c0,0-22.203,26.945-53.892,26.945s-53.892-26.945-53.892-26.945L188.634,318.73L188.634,318.73z"/>
<path style="fill:#4CBD91;" d="M344.921,385.341c14.551,4.635,26.945,9.7,37.616,15.197v0.97h-80.73v43.113h134.729v1.94
	c10.671,17.245,10.779,30.395,10.779,30.395s0,11.856,0,26.945H37.738c0-15.09,0-26.945,0-26.945s0.97-58.958,102.395-91.616
	c0,0,36.755-19.185,48.503-32.335c0,0,22.203,26.945,53.892,26.945s53.892-26.945,53.892-26.945
	C308.166,366.155,344.921,385.341,344.921,385.341z"/>
<path style="fill:#FEDAAB;" d="M296.418,318.73c-15.629,8.084-33.844,12.718-53.892,12.718s-38.263-4.527-53.892-12.718
	c-34.598-18-57.34-53.353-63.161-95.497c-16.706-2.263-33.844-18.108-33.844-31.903c0-14.874,14.443-21.557,32.335-21.557v-21.557
	c0,0,43.113,0,91.616-48.503c0,0,70.059,43.113,145.508,43.113v26.945c17.892,0,32.335,6.682,32.335,21.557
	c0,13.797-17.137,29.64-33.844,31.903C353.76,265.377,331.016,300.73,296.418,318.73z"/>
<path style="fill:#A67C52;" d="M215.581,99.714c-48.503,48.503-91.616,48.503-91.616,48.503v-5.389
	c0,0-5.605-134.729,118.562-134.729c123.951,0,118.562,134.729,118.562,134.729C285.64,142.827,215.581,99.714,215.581,99.714z"/>
<path style="fill:#231F20;" d="M482.359,393.409h-96.15l0.037-0.07c-11.234-5.787-23.733-10.86-38.188-15.498
	c-9.621-5.065-33.321-18.491-43.542-28.137v-26.192c32.68-18.787,55.045-52.405,62.206-93.53
	c18.607-5.313,34.799-22.687,34.799-38.653c0-16.219-12.185-26.993-32.335-29.224v-19.129c0.158-4.579,1.563-67.652-37.994-108.823
	C309.419,11.491,279.587,0,242.527,0c-37.158,0-67.044,11.513-88.826,34.219c-39.48,41.157-38.001,104.125-37.834,108.761v19.125
	c-20.151,2.231-32.335,13.004-32.335,29.224c0,15.966,16.194,33.339,34.799,38.653c7.162,41.133,29.533,74.756,62.206,93.531v26.19
	c-10.217,9.641-33.938,23.079-43.554,28.144C31.921,411.938,29.684,474.184,29.641,476.823l-0.001,35.176h425.773v-35.11
	c-0.004-0.509-0.175-10.398-6.421-24.172h33.366v-59.308H482.359z M196.732,331.273c14.14,5.487,29.485,8.273,45.794,8.273
	c16.181,0,31.524-2.8,45.794-8.317v18.657c-5.531,5.783-23.048,21.967-45.794,21.967c-22.598,0-40.237-16.216-45.794-21.984
	L196.732,331.273L196.732,331.273z M165.457,45.361c18.605-19.353,44.534-29.165,77.07-29.165c32.442,0,58.322,9.793,76.918,29.106
	c27.707,28.776,32.611,71.659,33.422,89.245c-69.062-2.924-132.388-41.328-133.041-41.73l-5.447-3.351l-4.523,4.522
	c-33.19,33.19-63.757,42.509-77.815,45.119C132.206,125.9,134.962,77.083,165.457,45.361z M133.495,222.127l-0.841-6.091
	l-6.093-0.826c-11.717-1.588-26.834-13.453-26.834-23.88c0-12.488,18.552-13.459,24.237-13.459h8.098v-22.305
	c14.834-2.216,48.103-10.995,84.763-45.763c17.497,9.815,73.821,38.599,136.169,40.961l-0.005,27.106h8.098
	c5.686,0,24.237,0.97,24.237,13.459c0,10.427-15.117,22.292-26.833,23.88l-6.094,0.826l-0.841,6.091
	c-5.559,40.254-27.019,72.846-58.86,89.412c-15.154,7.839-32.033,11.812-50.171,11.812c-18.337,0-35.203-3.968-50.155-11.805
	C160.515,294.972,139.055,262.381,133.495,222.127z M439.218,477.059v18.745H45.836v-18.699c0.052-0.948,0.975-13.94,12.483-30.19
	c20.263-28.612,57.024-45.086,84.297-53.868l0.654-0.211l0.61-0.319c3.353-1.75,29.401-15.505,44.481-28.135
	c9.324,8.777,28.869,23.665,54.166,23.665c25.296,0,44.842-14.888,54.166-23.665c15.08,12.629,41.129,26.385,44.481,28.135
	l0.622,0.325l0.668,0.213c0.366,0.117,0.715,0.236,1.078,0.353H293.71v59.31h137.064
	C438.612,466.212,439.19,476.403,439.218,477.059z M466.163,436.524H309.905v-26.918h156.259V436.524z"/>
<g>
</g>
<g>
</g>
<g>
</g>
<g>
</g>
<g>
</g>
<g>
</g>
<g>
</g>
<g>
</g>
<g>
</g>
<g>
</g>
<g>
</g>
<g>
</g>
<g>
</g>
<g>
</g>
<g>
</g>
</svg>
